<svg xmlns="http://www.w3.org/2000/svg" viewBox="0 0 24 24" fill="currentColor"><path d="M12 .3C5.37.3 0 5.67 0 12.3c0 5.3 3.44 9.8 8.21 11.39.6.11.82-.26.82-.58 0-.28-.01-1.03-.02-2.02-3.34.73-4.04-1.61-4.04-1.61-.55-1.39-1.33-1.76-1.33-1.76-1.09-.74.08-.73.08-.73 1.2.09 1.84 1.24 1.84 1.24 1.07 1.83 2.81 1.3 3.5 1 .11-.78.42-1.3.76-1.6-2.67-.3-5.47-1.33-5.47-5.93 0-1.31.47-2.38 1.24-3.22-.12-.3-.54-1.52.12-3.18 0 0 1.01-.32 3.3 1.23.96-.27 1.98-.4 3-.4s2.04.13 3 .4c2.29-1.55 3.3-1.23 3.3-1.23.66 1.66.24 2.88.12 3.18.77.84 1.24 1.91 1.24 3.22 0 4.61-2.81 5.62-5.48 5.92.43.37.81 1.1.81 2.23 0 1.61-.01 2.91-.01 3.3 0 .32.22.7.82.58C20.56 22.1 24 17.6 24 12.3 24 5.67 18.63.3 12 .3z"/></svg>
